<?xml version="1.0" standalone="no"?>
<!DOCTYPE svg PUBLIC "-//W3C//DTD SVG 20010904//EN"
 "http://www.w3.org/TR/2001/REC-SVG-20010904/DTD/svg10.dtd">
<svg version="1.0" xmlns="http://www.w3.org/2000/svg"
 width="512.000000pt" height="512.000000pt" viewBox="0 0 512.000000 512.000000"
 preserveAspectRatio="xMidYMid meet">

<g transform="translate(0.000000,512.000000) scale(0.100000,-0.100000)"
fill="#000000" stroke="none">
<path d="M1045 4415 c-221 -49 -407 -197 -500 -400 -69 -148 -65 -68 -65
-1455 0 -1387 -4 -1307 65 -1455 86 -187 251 -327 460 -392 57 -17 130 -18
1550 -18 1389 0 1494 1 1553 18 202 55 373 197 462 382 74 155 70 67 70 1465
0 1387 4 1307 -65 1455 -83 180 -231 312 -430 382 l-80 28 -1480 2 c-1200 1
-1491 -1 -1540 -12z m715 -1856 l0 -1551 -307 5 c-248 4 -320 8 -368 22 -161
45 -247 150 -275 333 -7 44 -10 464 -8 1237 l3 1170 23 67 c52 154 159 234
342 258 30 4 175 8 323 9 l267 1 0 -1551z m2275 1527 c160 -47 246 -149 275
-328 14 -86 14 -2310 0 -2396 -30 -182 -112 -278 -283 -330 -46 -14 -164 -16
-999 -19 l-948 -4 0 1551 0 1551 948 -4 c872 -3 952 -4 1007 -21z"/>
</g>
</svg>
